<svg xmlns="http://www.w3.org/2000/svg" width="1502.291" height="914.455" viewBox="0 0 1502.291 914.455"><defs><style>.a,.c,.d,.f{fill:none;}.a,.c{stroke:#fff;}.a{stroke-width:3px;}.b,.g{fill:#fff;}.e,.g{stroke:none;}</style></defs><g transform="translate(-918.171 -66.875)"><path class="a" d="M3633.984,3303.14l-7.708-15.415,19.565-25.494" transform="translate(-1146.402 -4111.644) rotate(17)"/><path class="a" d="M3633.984,3303.14l-7.708-15.415,19.565-25.494" transform="matrix(-0.574, 0.819, -0.819, -0.574, 6673.591, -364.93)"/><g class="a" transform="translate(2019.962 406.33)"><circle class="e" cx="13.5" cy="13.5" r="13.5"/><circle class="f" cx="13.5" cy="13.5" r="12"/></g><circle class="b" cx="13.5" cy="13.5" r="13.5" transform="translate(1237.962 954.33)"/><g class="a" transform="translate(1733.742 279.734) rotate(30)"><rect class="e" width="24.657" height="24.657"/><rect class="f" x="1.5" y="1.5" width="21.657" height="21.657"/></g><rect class="b" width="24.657" height="24.657" transform="translate(2145.833 768.877) rotate(30)"/><path class="b" d="M39.957,0,59.848,32.415,0,20.383Z" transform="translate(2211.304 155.779) rotate(-51)"/><path class="b" d="M30.821,0A15.411,15.411,0,0,1,15.411,15.411,15.411,15.411,0,0,1,0,0Z" transform="translate(918.171 211.34) rotate(-22)"/><path class="a" d="M1440.629,142.587l20.618-9.938,9.487,67.639L1482,172.1" transform="translate(140.592 732.416)"/><line class="c" x1="451" transform="translate(1969.462 81.83)"/><line class="c" x1="451" transform="translate(977.462 784.83)"/><line class="c" x1="218" transform="translate(2199.462 537.83)"/><g class="d" transform="translate(-21201.232 -17323.49)"><path class="e" d="M22578.965,18021.85l5.637-2.088-5.127-3.725,12.719-5.59-1.391,13.818-5.123-3.721-.246,6.006Z"/><path class="g" d="M 22584.51171875 18024.64453125 L 22584.66796875 18020.802734375 L 22581.064453125 18022.138671875 L 22584.51171875 18024.64453125 M 22589.982421875 18022.43359375 L 22591.02734375 18012.052734375 L 22581.470703125 18016.251953125 L 22585.189453125 18018.953125 L 22586.1328125 18019.638671875 L 22586.267578125 18019.736328125 L 22589.982421875 18022.43359375 M 22585.43359375 18026.55078125 L 22578.96484375 18021.849609375 L 22584.6015625 18019.76171875 L 22579.474609375 18016.037109375 L 22592.193359375 18010.447265625 L 22590.802734375 18024.265625 L 22585.6796875 18020.544921875 L 22585.43359375 18026.55078125 Z"/></g></g></svg>