<svg xmlns="http://www.w3.org/2000/svg" width="1953.972" height="880.462" viewBox="0 0 1953.972 880.462"><defs><style>.a,.c,.d,.f{fill:none;}.a,.c{stroke:#279989;}.a{stroke-width:3px;}.b,.g{fill:#279989;}.e,.g{stroke:none;}</style></defs><g transform="translate(-866.462 -35.875)"><path class="a" d="M9.117,48.389,0,30.155,23.142,0" transform="translate(1557.391 37.263) rotate(17)"/><path class="a" d="M9.117,48.389,0,30.155,23.142,0" transform="matrix(-0.574, 0.819, -0.819, -0.574, 1076.048, 856.193)"/><g class="a" transform="translate(1715.462 568.263)"><ellipse class="e" cx="16" cy="15.5" rx="16" ry="15.5"/><ellipse class="f" cx="16" cy="15.5" rx="14.5" ry="14"/></g><ellipse class="b" cx="16.5" cy="16" rx="16.5" ry="16" transform="translate(2723.462 446.263)"/><g class="a" transform="translate(2061.596 249.255) rotate(30)"><rect class="e" width="29.165" height="29.165"/><rect class="f" x="1.5" y="1.5" width="26.165" height="26.165"/></g><rect class="b" width="29.165" height="29.165" transform="translate(2632.907 756.969) rotate(30)"/><path class="b" d="M47.262,0,70.79,38.341,0,24.109Z" transform="translate(2573.035 171.779) rotate(-51)"/><path class="b" d="M36.456,0A18.228,18.228,0,0,1,18.228,18.228,18.228,18.228,0,0,1,0,0Z" transform="translate(1058.484 327.499) rotate(-22)"/><path class="a" d="M1440.629,144.4l24.388-11.755,11.221,80.005,13.324-33.336" transform="translate(538.94 638.093)"/><line class="c" x1="533.455" transform="translate(2286.979 84.31)"/><line class="c" x1="605.608" transform="translate(866.462 915.838)"/><line class="c" x1="257.856" transform="translate(2559.029 623.679)"/><g transform="translate(1410.887 765.199)"><g class="d" transform="matrix(0.809, 0.588, -0.588, 0.809, 4.171, 12.613)"><path class="e" d="M4.731,0,9.463,7.1H0Z"/><path class="g" d="M 4.73130989074707 1.80277681350708 L 1.868517398834229 6.096962928771973 L 7.594102382659912 6.096962928771973 L 4.73130989074707 1.80277681350708 M 4.73130989074707 2.86102294921875e-06 L 9.462619781494141 7.096962928771973 L 0 7.096962928771973 L 4.73130989074707 2.86102294921875e-06 Z"/></g><g class="d" transform="matrix(0.809, 0.588, -0.588, 0.809, 8.948, 0)"><path class="e" d="M8.28,0l8.28,14.194H0Z"/><path class="g" d="M 8.279793739318848 1.984633445739746 L 1.741040229797363 13.19393539428711 L 14.81854724884033 13.19393539428711 L 8.279793739318848 1.984633445739746 M 8.279793739318848 -3.814697265625e-06 L 16.55958366394043 14.19393539428711 L 3.814697265625e-06 14.19393539428711 L 8.279793739318848 -3.814697265625e-06 Z"/></g></g></g></svg>